<svg xmlns="http://www.w3.org/2000/svg" viewBox="0 0 240 60" fill="none" class="brand-logo-svg">
  <!-- John Deere Emblem Border -->
  <rect x="8" y="6" width="48" height="48" rx="8" stroke="#111827" stroke-width="3.5" fill="none"/>
  <!-- Leaping Deer Silhouette -->
  <path d="M42 22c-1.5-3-4-4.5-6-3.5 1-2 2-4.5 1-6-1.5 1.5-3 3.5-3.5 5-2-1-4-1.5-6.5-.5 1-1.5 1.8-3 1.2-4.5-1.5 1-3 2.5-3.7 4-2.5 1.2-4 3.5-4.5 6.5-.3 2 .2 3.8 1.2 5.5-2.2 1.5-4.5 4-6 7.5-.8 1.8-.5 3.8.8 4.2 1.2.4 2.5-.8 3.5-2.5 1.5-2.5 3.8-4.5 6-5.5 1 2 2.8 3.5 5 4.2 3.5 1 6.5.2 8.5-2 1.5-1.8 2.2-4 2.2-6.5 1.8-1 3.5-2.5 4.5-4.5.8-1.5.5-3-.2-3.8z" fill="#111827"/>
  <!-- John Deere Wordmark -->
  <text x="68" y="32" font-family="-apple-system, BlinkMacSystemFont, 'Segoe UI', Roboto, Helvetica, Arial, sans-serif" font-size="20" font-weight="900" letter-spacing="1.5" fill="#111827">JOHN DEERE</text>
  <text x="69" y="47" font-family="-apple-system, BlinkMacSystemFont, 'Segoe UI', Roboto, Helvetica, Arial, sans-serif" font-size="8.5" font-weight="700" letter-spacing="3" fill="#4b5563">AGRICULTURE</text>
</svg>
